<svg xmlns="http://www.w3.org/2000/svg" viewBox="0 0 362.59 311.44"><defs><style>.cls-1,.cls-2{fill:#db700f;}.cls-2{fill-rule:evenodd;}</style></defs><g id="Camada_2" data-name="Camada 2"><g id="Layer_1" data-name="Layer 1"><path class="cls-1" d="M57.72,311.44a6.45,6.45,0,0,1-4.56-1.89L30.28,286.67a6.45,6.45,0,0,1-.41-8.67l27.41-33.08a139.91,139.91,0,0,1-9.26-21L5.84,220A6.44,6.44,0,0,1,0,213.56V149a6.44,6.44,0,0,1,5.84-6.41l39.89-3.75A139.77,139.77,0,0,1,55,115L29.87,84.58a6.44,6.44,0,0,1,.41-8.66L75.92,30.28a6.44,6.44,0,0,1,8.66-.41L113.71,54a141.2,141.2,0,0,1,25.39-10.8l3.51-37.35A6.44,6.44,0,0,1,149,0h64.54A6.44,6.44,0,0,1,220,5.84l3.51,37.35A141.13,141.13,0,0,1,248.88,54L278,29.87a6.45,6.45,0,0,1,8.67.41L332.3,75.92a6.44,6.44,0,0,1,.41,8.66L307.56,115a140.6,140.6,0,0,1,9.3,23.91l39.89,3.75a6.44,6.44,0,0,1,5.84,6.41v64.54a6.44,6.44,0,0,1-5.84,6.42l-42.19,4a140.43,140.43,0,0,1-9.25,21L332.71,278a6.45,6.45,0,0,1-.41,8.67l-22.81,22.82a6.46,6.46,0,0,1-9.11,0,6.89,6.89,0,0,1-.93-1.18l-49.89-56,0,0-.13-.14a6.44,6.44,0,0,1,.53-9.1,6.14,6.14,0,0,1,.84-.63A94.85,94.85,0,1,0,113,243.6a6.45,6.45,0,0,1,.05,8.89l-.31.32-50.2,56.46a6.42,6.42,0,0,1-4.62,2.16ZM43.54,281.7l13.9,13.91,42.23-47.5A107.74,107.74,0,1,1,263,248l42.26,47.48L319,281.7l-26.48-32a6.48,6.48,0,0,1-.6-7.37A126.88,126.88,0,0,0,303.62,216a6.45,6.45,0,0,1,6.27-4.52l39.81-3.74V154.89l-37.85-3.56h-.06a6.42,6.42,0,0,1-6.23-4.85,127.1,127.1,0,0,0-11.42-29.41,6.45,6.45,0,0,1,1.61-8.06L319,80.88,281.7,43.54l-27,22.39a6.45,6.45,0,0,1-8.28,1.48,127.06,127.06,0,0,0-30.76-13.1A6.43,6.43,0,0,1,211,47.45L207.7,12.89H154.89l-3.33,35.34a6.4,6.4,0,0,1-4.7,6.1,127.36,127.36,0,0,0-30.59,13,6.46,6.46,0,0,1-7.85-1L80.88,43.54,43.54,80.88,67.1,109.33a6.36,6.36,0,0,1,1.33,7.75A127.74,127.74,0,0,0,57,146.59a6.43,6.43,0,0,1-7.1,4.82l-37,3.48V207.7l39.82,3.74A6.47,6.47,0,0,1,59,216h0a127.33,127.33,0,0,0,11.71,26.47,6.45,6.45,0,0,1-1.34,8.12Z"/><path class="cls-2" d="M182.34,107.51c-47.49-.33-73.55,38.28-73.55,62.16,0,30.93,23.5,74.38,38.55,102l69.21.1c13.72-23.61,37.25-78.21,37.25-103.94C253.8,144.31,229.82,107.83,182.34,107.51ZM134,223.77c.68,1.45,1.38,2.89,2.08,4.33C135.33,226.66,134.63,225.22,134,223.77Zm2.45,5.09q1,2.13,2.11,4.23Q137.45,231,136.4,228.86Zm2.49,5q2.22,4.36,4.48,8.59Q141.12,238.23,138.89,233.85Zm71,28.12-31.67.1,5.86,0a25.77,25.77,0,0,0,2.51-5,33.66,33.66,0,0,0,1.94-11.81V200.91a1.22,1.22,0,0,0-.25-.79,1.69,1.69,0,0,0-.81-.53,7.16,7.16,0,0,0-1.45-.35,16.42,16.42,0,0,0-2.28-.13,16.92,16.92,0,0,0-2.35.13,8.59,8.59,0,0,0-1.5.35,1.42,1.42,0,0,0-.78.53,1.34,1.34,0,0,0-.23.79v44.33a27,27,0,0,1-1.21,8.52,16.57,16.57,0,0,1-3.46,6.11,14.89,14.89,0,0,1-2.6,2.22l-17.58.05c-3.23-5.94-6.86-12.48-10.52-19.36V200.91a1.34,1.34,0,0,0-.23-.79,1.51,1.51,0,0,0-.77-.53,7,7,0,0,0-1.49-.35,16.73,16.73,0,0,0-2.3-.13,16.47,16.47,0,0,0-2.37.13,8.32,8.32,0,0,0-1.48.35,1.42,1.42,0,0,0-.78.53,1.27,1.27,0,0,0-.23.79v22.75c-8.45-18-15.24-36.86-15.24-53.41,0-19.78,21.88-51.15,63.68-52s62.23,30.7,62.23,50.2C244.57,193.13,223.16,239.22,209.93,262Z"/><rect class="cls-1" x="148.12" y="280.62" width="66.34" height="9.45" rx="4.72"/><path class="cls-2" d="M209.74,297.39H152.85a4.73,4.73,0,1,0,0,9.45h56.89a4.73,4.73,0,0,0,0-9.45Z"/><path class="cls-2" d="M208.36,132.86c-6.54-3.15-19.9-6.78-25.24-2.34-3.32,2.76-.59,5.55,2.24,5.67,8.63.35,13.77,1.26,19.2,3.84,3.1,1.48,6.79,5.78,12.77,12.26,2.77,3,7.35,2.63,7.1-1.36C224.08,145.46,214,135.58,208.36,132.86Z"/></g></g></svg>